<svg width="21" height="26" viewBox="0 0 21 26" fill="none" xmlns="http://www.w3.org/2000/svg">
<path d="M16.3179 1.5V3.13379L3.75439 3.53906L3.60986 1.5H16.3179Z" stroke="#141414" stroke-linejoin="round"/>
<path d="M16.8182 3.50966V1.21875H3.34545L3.56364 3.78239M16.8182 3.50966L20.0909 7.70966M16.8182 3.50966L3.56364 3.78239M20.0909 7.70966V24.346L6.01818 25.0006M20.0909 7.70966L5.8 8.03693M6.01818 25.0006L5.8 8.03693M6.01818 25.0006L1 22.8733V7.32784M5.8 8.03693L3.56364 3.78239M5.8 8.03693L1 7.32784M3.56364 3.78239L1 7.32784" stroke="#141414"/>
<path d="M1 22.7555V15.6039C1 15.6039 1.4115 15.695 1.86489 15.6039C2.88664 15.3984 2.58295 14.0342 3.59467 13.7914C5.52824 13.3274 5.21634 16.3386 7.27045 17.2693C9.05532 18.078 10.9173 16.5201 12.8922 16.7795C16.6221 17.2693 16.0316 19.0807 18.0816 19.1797C19.0208 19.225 19.8114 18.8368 19.8114 18.8368V24.1761L5.91906 24.6659L1 22.7555Z" fill="#15FF00" fill-opacity="0.5" stroke="#696969" stroke-opacity="0.25" stroke-width="2"/>
<path d="M1 22.9674V16.6079C1 16.6079 1.4115 16.689 1.86489 16.6079C2.88664 16.4252 2.58295 15.2121 3.59467 14.9962C5.52824 14.5836 5.38416 17.5526 7.27045 18.0888C9.15233 18.6238 10.9391 17.3237 12.8922 17.6533C14.9016 17.9923 15.3829 19.6996 17.4329 19.7876C18.3721 19.828 19.8114 19.4827 19.8114 19.4827V24.2305L5.91906 24.6661L1 22.9674Z" fill="#87B5DF"/>
<path d="M1 13.3271V22.7635L5.9495 24.8908L20.0909 24.3453V13.3271" stroke="#141414"/>
<path d="M9.41185 4.64149L9.41448 4.60111C9.4891 3.12054 9.94733 2.6264 10.3668 2.44075C10.8653 2.22026 11.539 2.30945 12.2955 2.4709C12.9818 2.61734 13.5696 2.90543 13.8785 3.34491C14.1599 3.74546 14.2949 4.39949 13.7932 5.50854L13.7717 5.55788L13.7605 5.6104C13.7271 5.76663 13.5562 5.98323 13.0942 6.12627C12.6499 6.26375 12.0362 6.29291 11.3676 6.15025C10.6988 6.00753 10.1497 5.73033 9.8002 5.42334C9.43705 5.10427 9.37017 4.83684 9.4035 4.68064L9.41185 4.64149Z" fill="#C7FFDD" stroke="#141414"/>
<path d="M12.2328 2.28673C12.9014 2.42945 13.4498 2.70653 13.7992 3.01343C14.1626 3.33261 14.2293 3.5999 14.1959 3.75613C14.1626 3.91235 13.9926 4.12918 13.5306 4.2722C13.0863 4.4097 12.4726 4.43881 11.804 4.29618C11.1352 4.15346 10.5861 3.87626 10.2366 3.56928C9.8734 3.25019 9.80662 2.9828 9.83992 2.82658C9.87325 2.67037 10.0434 2.45355 10.5052 2.31051C10.9496 2.17293 11.564 2.14401 12.2328 2.28673Z" fill="#C7FFDD" stroke="#141414"/>
<ellipse cx="10.7892" cy="11.628" rx="1.06193" ry="1.13778" fill="#141414"/>
<path d="M13.0546 12.8984C13.0546 12.8984 13.4551 13.9224 14.0348 13.8787C14.5801 13.8375 14.875 12.8984 14.875 12.8984" stroke="#141414"/>
<ellipse cx="16.5284" cy="11.3304" rx="0.910227" ry="0.84021" fill="#141414"/>
<path d="M5.69068 7.98083L5.96341 16.5445L5.79977 24.999" stroke="#141414"/>
</svg>
